# Tiled2Unity generated file. Do not modify by hand.
# Wavefront file for 'firstMapS_mesh_0001.obj'

# Vertices (Count = 576)
v -24 -3 0
v -25 -3 0
v -25 -2 0
v -24 -2 0
v -25 -3 0
v -26 -3 0
v -26 -2 0
v -25 -2 0
v -26 -3 0
v -27 -3 0
v -27 -2 0
v -26 -2 0
v -27 -3 0
v -28 -3 0
v -28 -2 0
v -27 -2 0
v -28 -3 0
v -29 -3 0
v -29 -2 0
v -28 -2 0
v -29 -3 0
v -30 -3 0
v -30 -2 0
v -29 -2 0
v -24 -4 0
v -25 -4 0
v -25 -3 0
v -24 -3 0
v -25 -4 0
v -26 -4 0
v -26 -3 0
v -25 -3 0
v -26 -4 0
v -27 -4 0
v -27 -3 0
v -26 -3 0
v -27 -4 0
v -28 -4 0
v -28 -3 0
v -27 -3 0
v -28 -4 0
v -29 -4 0
v -29 -3 0
v -28 -3 0
v -29 -4 0
v -30 -4 0
v -30 -3 0
v -29 -3 0
v -39 -4 0
v -40 -4 0
v -40 -3 0
v -39 -3 0
v -40 -4 0
v -41 -4 0
v -41 -3 0
v -40 -3 0
v -41 -4 0
v -42 -4 0
v -42 -3 0
v -41 -3 0
v -42 -4 0
v -43 -4 0
v -43 -3 0
v -42 -3 0
v -43 -4 0
v -44 -4 0
v -44 -3 0
v -43 -3 0
v -44 -4 0
v -45 -4 0
v -45 -3 0
v -44 -3 0
v -58 -4 0
v -59 -4 0
v -59 -3 0
v -58 -3 0
v -59 -4 0
v -60 -4 0
v -60 -3 0
v -59 -3 0
v -60 -4 0
v -61 -4 0
v -61 -3 0
v -60 -3 0
v -61 -4 0
v -62 -4 0
v -62 -3 0
v -61 -3 0
v -62 -4 0
v -63 -4 0
v -63 -3 0
v -62 -3 0
v -63 -4 0
v -64 -4 0
v -64 -3 0
v -63 -3 0
v -24 -5 0
v -25 -5 0
v -25 -4 0
v -24 -4 0
v -25 -5 0
v -26 -5 0
v -26 -4 0
v -25 -4 0
v -26 -5 0
v -27 -5 0
v -27 -4 0
v -26 -4 0
v -27 -5 0
v -28 -5 0
v -28 -4 0
v -27 -4 0
v -28 -5 0
v -29 -5 0
v -29 -4 0
v -28 -4 0
v -29 -5 0
v -30 -5 0
v -30 -4 0
v -29 -4 0
v -39 -5 0
v -40 -5 0
v -40 -4 0
v -39 -4 0
v -40 -5 0
v -41 -5 0
v -41 -4 0
v -40 -4 0
v -41 -5 0
v -42 -5 0
v -42 -4 0
v -41 -4 0
v -42 -5 0
v -43 -5 0
v -43 -4 0
v -42 -4 0
v -43 -5 0
v -44 -5 0
v -44 -4 0
v -43 -4 0
v -44 -5 0
v -45 -5 0
v -45 -4 0
v -44 -4 0
v -58 -5 0
v -59 -5 0
v -59 -4 0
v -58 -4 0
v -59 -5 0
v -60 -5 0
v -60 -4 0
v -59 -4 0
v -60 -5 0
v -61 -5 0
v -61 -4 0
v -60 -4 0
v -61 -5 0
v -62 -5 0
v -62 -4 0
v -61 -4 0
v -62 -5 0
v -63 -5 0
v -63 -4 0
v -62 -4 0
v -63 -5 0
v -64 -5 0
v -64 -4 0
v -63 -4 0
v -24 -6 0
v -25 -6 0
v -25 -5 0
v -24 -5 0
v -25 -6 0
v -26 -6 0
v -26 -5 0
v -25 -5 0
v -26 -6 0
v -27 -6 0
v -27 -5 0
v -26 -5 0
v -27 -6 0
v -28 -6 0
v -28 -5 0
v -27 -5 0
v -28 -6 0
v -29 -6 0
v -29 -5 0
v -28 -5 0
v -29 -6 0
v -30 -6 0
v -30 -5 0
v -29 -5 0
v -39 -6 0
v -40 -6 0
v -40 -5 0
v -39 -5 0
v -40 -6 0
v -41 -6 0
v -41 -5 0
v -40 -5 0
v -41 -6 0
v -42 -6 0
v -42 -5 0
v -41 -5 0
v -42 -6 0
v -43 -6 0
v -43 -5 0
v -42 -5 0
v -43 -6 0
v -44 -6 0
v -44 -5 0
v -43 -5 0
v -44 -6 0
v -45 -6 0
v -45 -5 0
v -44 -5 0
v -58 -6 0
v -59 -6 0
v -59 -5 0
v -58 -5 0
v -59 -6 0
v -60 -6 0
v -60 -5 0
v -59 -5 0
v -60 -6 0
v -61 -6 0
v -61 -5 0
v -60 -5 0
v -61 -6 0
v -62 -6 0
v -62 -5 0
v -61 -5 0
v -62 -6 0
v -63 -6 0
v -63 -5 0
v -62 -5 0
v -63 -6 0
v -64 -6 0
v -64 -5 0
v -63 -5 0
v -24 -7 0
v -25 -7 0
v -25 -6 0
v -24 -6 0
v -25 -7 0
v -26 -7 0
v -26 -6 0
v -25 -6 0
v -26 -7 0
v -27 -7 0
v -27 -6 0
v -26 -6 0
v -27 -7 0
v -28 -7 0
v -28 -6 0
v -27 -6 0
v -28 -7 0
v -29 -7 0
v -29 -6 0
v -28 -6 0
v -29 -7 0
v -30 -7 0
v -30 -6 0
v -29 -6 0
v -39 -7 0
v -40 -7 0
v -40 -6 0
v -39 -6 0
v -40 -7 0
v -41 -7 0
v -41 -6 0
v -40 -6 0
v -41 -7 0
v -42 -7 0
v -42 -6 0
v -41 -6 0
v -42 -7 0
v -43 -7 0
v -43 -6 0
v -42 -6 0
v -43 -7 0
v -44 -7 0
v -44 -6 0
v -43 -6 0
v -44 -7 0
v -45 -7 0
v -45 -6 0
v -44 -6 0
v -58 -7 0
v -59 -7 0
v -59 -6 0
v -58 -6 0
v -59 -7 0
v -60 -7 0
v -60 -6 0
v -59 -6 0
v -60 -7 0
v -61 -7 0
v -61 -6 0
v -60 -6 0
v -61 -7 0
v -62 -7 0
v -62 -6 0
v -61 -6 0
v -62 -7 0
v -63 -7 0
v -63 -6 0
v -62 -6 0
v -63 -7 0
v -64 -7 0
v -64 -6 0
v -63 -6 0
v -24 -8 0
v -25 -8 0
v -25 -7 0
v -24 -7 0
v -25 -8 0
v -26 -8 0
v -26 -7 0
v -25 -7 0
v -26 -8 0
v -27 -8 0
v -27 -7 0
v -26 -7 0
v -27 -8 0
v -28 -8 0
v -28 -7 0
v -27 -7 0
v -28 -8 0
v -29 -8 0
v -29 -7 0
v -28 -7 0
v -29 -8 0
v -30 -8 0
v -30 -7 0
v -29 -7 0
v -39 -8 0
v -40 -8 0
v -40 -7 0
v -39 -7 0
v -40 -8 0
v -41 -8 0
v -41 -7 0
v -40 -7 0
v -41 -8 0
v -42 -8 0
v -42 -7 0
v -41 -7 0
v -42 -8 0
v -43 -8 0
v -43 -7 0
v -42 -7 0
v -43 -8 0
v -44 -8 0
v -44 -7 0
v -43 -7 0
v -44 -8 0
v -45 -8 0
v -45 -7 0
v -44 -7 0
v -58 -8 0
v -59 -8 0
v -59 -7 0
v -58 -7 0
v -59 -8 0
v -60 -8 0
v -60 -7 0
v -59 -7 0
v -60 -8 0
v -61 -8 0
v -61 -7 0
v -60 -7 0
v -61 -8 0
v -62 -8 0
v -62 -7 0
v -61 -7 0
v -62 -8 0
v -63 -8 0
v -63 -7 0
v -62 -7 0
v -63 -8 0
v -64 -8 0
v -64 -7 0
v -63 -7 0
v -24 -9 0
v -25 -9 0
v -25 -8 0
v -24 -8 0
v -25 -9 0
v -26 -9 0
v -26 -8 0
v -25 -8 0
v -26 -9 0
v -27 -9 0
v -27 -8 0
v -26 -8 0
v -27 -9 0
v -28 -9 0
v -28 -8 0
v -27 -8 0
v -28 -9 0
v -29 -9 0
v -29 -8 0
v -28 -8 0
v -29 -9 0
v -30 -9 0
v -30 -8 0
v -29 -8 0
v -39 -9 0
v -40 -9 0
v -40 -8 0
v -39 -8 0
v -40 -9 0
v -41 -9 0
v -41 -8 0
v -40 -8 0
v -41 -9 0
v -42 -9 0
v -42 -8 0
v -41 -8 0
v -42 -9 0
v -43 -9 0
v -43 -8 0
v -42 -8 0
v -43 -9 0
v -44 -9 0
v -44 -8 0
v -43 -8 0
v -44 -9 0
v -45 -9 0
v -45 -8 0
v -44 -8 0
v -58 -9 0
v -59 -9 0
v -59 -8 0
v -58 -8 0
v -59 -9 0
v -60 -9 0
v -60 -8 0
v -59 -8 0
v -60 -9 0
v -61 -9 0
v -61 -8 0
v -60 -8 0
v -61 -9 0
v -62 -9 0
v -62 -8 0
v -61 -8 0
v -62 -9 0
v -63 -9 0
v -63 -8 0
v -62 -8 0
v -63 -9 0
v -64 -9 0
v -64 -8 0
v -63 -8 0
v -24 -10 0
v -25 -10 0
v -25 -9 0
v -24 -9 0
v -25 -10 0
v -26 -10 0
v -26 -9 0
v -25 -9 0
v -26 -10 0
v -27 -10 0
v -27 -9 0
v -26 -9 0
v -27 -10 0
v -28 -10 0
v -28 -9 0
v -27 -9 0
v -28 -10 0
v -29 -10 0
v -29 -9 0
v -28 -9 0
v -29 -10 0
v -30 -10 0
v -30 -9 0
v -29 -9 0
v -58 -10 0
v -59 -10 0
v -59 -9 0
v -58 -9 0
v -59 -10 0
v -60 -10 0
v -60 -9 0
v -59 -9 0
v -60 -10 0
v -61 -10 0
v -61 -9 0
v -60 -9 0
v -61 -10 0
v -62 -10 0
v -62 -9 0
v -61 -9 0
v -62 -10 0
v -63 -10 0
v -63 -9 0
v -62 -9 0
v -63 -10 0
v -64 -10 0
v -64 -9 0
v -63 -9 0
v -24 -11 0
v -25 -11 0
v -25 -10 0
v -24 -10 0
v -25 -11 0
v -26 -11 0
v -26 -10 0
v -25 -10 0
v -26 -11 0
v -27 -11 0
v -27 -10 0
v -26 -10 0
v -27 -11 0
v -28 -11 0
v -28 -10 0
v -27 -10 0
v -28 -11 0
v -29 -11 0
v -29 -10 0
v -28 -10 0
v -29 -11 0
v -30 -11 0
v -30 -10 0
v -29 -10 0
v -58 -11 0
v -59 -11 0
v -59 -10 0
v -58 -10 0
v -59 -11 0
v -60 -11 0
v -60 -10 0
v -59 -10 0
v -60 -11 0
v -61 -11 0
v -61 -10 0
v -60 -10 0
v -61 -11 0
v -62 -11 0
v -62 -10 0
v -61 -10 0
v -62 -11 0
v -63 -11 0
v -63 -10 0
v -62 -10 0
v -63 -11 0
v -64 -11 0
v -64 -10 0
v -63 -10 0
v -58 -12 0
v -59 -12 0
v -59 -11 0
v -58 -11 0
v -59 -12 0
v -60 -12 0
v -60 -11 0
v -59 -11 0
v -60 -12 0
v -61 -12 0
v -61 -11 0
v -60 -11 0
v -61 -12 0
v -62 -12 0
v -62 -11 0
v -61 -11 0
v -62 -12 0
v -63 -12 0
v -63 -11 0
v -62 -11 0
v -63 -12 0
v -64 -12 0
v -64 -11 0
v -63 -11 0

# Texture cooridinates (Count = 70)
vt 0 0.8888889
vt 0.1666667 0.8888889
vt 0.1666667 1
vt 0 1
vt 0.3333333 0.8888889
vt 0.3333333 1
vt 0.5 0.8888889
vt 0.5 1
vt 0.6666667 0.8888889
vt 0.6666667 1
vt 0.8333333 0.8888889
vt 0.8333333 1
vt 1 0.8888889
vt 1 1
vt 0 0.7777778
vt 0.1666667 0.7777778
vt 0.3333333 0.7777778
vt 0.5 0.7777778
vt 0.6666667 0.7777778
vt 0.8333333 0.7777778
vt 1 0.7777778
vt 0 0.6666666
vt 0.1666667 0.6666666
vt 0.3333333 0.6666666
vt 0.5 0.6666666
vt 0.6666667 0.6666666
vt 0.8333333 0.6666666
vt 1 0.6666666
vt 0 0.5555556
vt 0.1666667 0.5555556
vt 0.3333333 0.5555556
vt 0.5 0.5555556
vt 0.6666667 0.5555556
vt 0.8333333 0.5555556
vt 1 0.5555556
vt 0 0.4444444
vt 0.1666667 0.4444444
vt 0.3333333 0.4444444
vt 0.5 0.4444444
vt 0.6666667 0.4444444
vt 0.8333333 0.4444444
vt 1 0.4444444
vt 0 0.3333333
vt 0.1666667 0.3333333
vt 0.3333333 0.3333333
vt 0.5 0.3333333
vt 0.6666667 0.3333333
vt 0.8333333 0.3333333
vt 1 0.3333333
vt 0 0.2222222
vt 0.1666667 0.2222222
vt 0.3333333 0.2222222
vt 0.5 0.2222222
vt 0.6666667 0.2222222
vt 0.8333333 0.2222222
vt 1 0.2222222
vt 0 0.1111111
vt 0.1666667 0.1111111
vt 0.3333333 0.1111111
vt 0.5 0.1111111
vt 0.6666667 0.1111111
vt 0.8333333 0.1111111
vt 1 0.1111111
vt 0 0
vt 0.1666667 0
vt 0.3333333 0
vt 0.5 0
vt 0.6666667 0
vt 0.8333333 0
vt 1 0

# Normal
vn 0 0 -1

# Mesh description
g firstMapS_mesh_0001

# Faces
f 1/1/1 2/2/1 3/3/1 4/4/1
f 5/2/1 6/5/1 7/6/1 8/3/1
f 9/5/1 10/7/1 11/8/1 12/6/1
f 13/7/1 14/9/1 15/10/1 16/8/1
f 17/9/1 18/11/1 19/12/1 20/10/1
f 21/11/1 22/13/1 23/14/1 24/12/1
f 25/15/1 26/16/1 27/2/1 28/1/1
f 29/16/1 30/17/1 31/5/1 32/2/1
f 33/17/1 34/18/1 35/7/1 36/5/1
f 37/18/1 38/19/1 39/9/1 40/7/1
f 41/19/1 42/20/1 43/11/1 44/9/1
f 45/20/1 46/21/1 47/13/1 48/11/1
f 49/1/1 50/2/1 51/3/1 52/4/1
f 53/2/1 54/5/1 55/6/1 56/3/1
f 57/5/1 58/7/1 59/8/1 60/6/1
f 61/7/1 62/9/1 63/10/1 64/8/1
f 65/9/1 66/11/1 67/12/1 68/10/1
f 69/11/1 70/13/1 71/14/1 72/12/1
f 73/1/1 74/2/1 75/3/1 76/4/1
f 77/2/1 78/5/1 79/6/1 80/3/1
f 81/5/1 82/7/1 83/8/1 84/6/1
f 85/7/1 86/9/1 87/10/1 88/8/1
f 89/9/1 90/11/1 91/12/1 92/10/1
f 93/11/1 94/13/1 95/14/1 96/12/1
f 97/22/1 98/23/1 99/16/1 100/15/1
f 101/23/1 102/24/1 103/17/1 104/16/1
f 105/24/1 106/25/1 107/18/1 108/17/1
f 109/25/1 110/26/1 111/19/1 112/18/1
f 113/26/1 114/27/1 115/20/1 116/19/1
f 117/27/1 118/28/1 119/21/1 120/20/1
f 121/15/1 122/16/1 123/2/1 124/1/1
f 125/16/1 126/17/1 127/5/1 128/2/1
f 129/17/1 130/18/1 131/7/1 132/5/1
f 133/18/1 134/19/1 135/9/1 136/7/1
f 137/19/1 138/20/1 139/11/1 140/9/1
f 141/20/1 142/21/1 143/13/1 144/11/1
f 145/15/1 146/16/1 147/2/1 148/1/1
f 149/16/1 150/17/1 151/5/1 152/2/1
f 153/17/1 154/18/1 155/7/1 156/5/1
f 157/18/1 158/19/1 159/9/1 160/7/1
f 161/19/1 162/20/1 163/11/1 164/9/1
f 165/20/1 166/21/1 167/13/1 168/11/1
f 169/29/1 170/30/1 171/23/1 172/22/1
f 173/30/1 174/31/1 175/24/1 176/23/1
f 177/31/1 178/32/1 179/25/1 180/24/1
f 181/32/1 182/33/1 183/26/1 184/25/1
f 185/33/1 186/34/1 187/27/1 188/26/1
f 189/34/1 190/35/1 191/28/1 192/27/1
f 193/22/1 194/23/1 195/16/1 196/15/1
f 197/23/1 198/24/1 199/17/1 200/16/1
f 201/24/1 202/25/1 203/18/1 204/17/1
f 205/25/1 206/26/1 207/19/1 208/18/1
f 209/26/1 210/27/1 211/20/1 212/19/1
f 213/27/1 214/28/1 215/21/1 216/20/1
f 217/22/1 218/23/1 219/16/1 220/15/1
f 221/23/1 222/24/1 223/17/1 224/16/1
f 225/24/1 226/25/1 227/18/1 228/17/1
f 229/25/1 230/26/1 231/19/1 232/18/1
f 233/26/1 234/27/1 235/20/1 236/19/1
f 237/27/1 238/28/1 239/21/1 240/20/1
f 241/36/1 242/37/1 243/30/1 244/29/1
f 245/37/1 246/38/1 247/31/1 248/30/1
f 249/38/1 250/39/1 251/32/1 252/31/1
f 253/39/1 254/40/1 255/33/1 256/32/1
f 257/40/1 258/41/1 259/34/1 260/33/1
f 261/41/1 262/42/1 263/35/1 264/34/1
f 265/29/1 266/30/1 267/23/1 268/22/1
f 269/30/1 270/31/1 271/24/1 272/23/1
f 273/31/1 274/32/1 275/25/1 276/24/1
f 277/32/1 278/33/1 279/26/1 280/25/1
f 281/33/1 282/34/1 283/27/1 284/26/1
f 285/34/1 286/35/1 287/28/1 288/27/1
f 289/29/1 290/30/1 291/23/1 292/22/1
f 293/30/1 294/31/1 295/24/1 296/23/1
f 297/31/1 298/32/1 299/25/1 300/24/1
f 301/32/1 302/33/1 303/26/1 304/25/1
f 305/33/1 306/34/1 307/27/1 308/26/1
f 309/34/1 310/35/1 311/28/1 312/27/1
f 313/43/1 314/44/1 315/37/1 316/36/1
f 317/44/1 318/45/1 319/38/1 320/37/1
f 321/45/1 322/46/1 323/39/1 324/38/1
f 325/46/1 326/47/1 327/40/1 328/39/1
f 329/47/1 330/48/1 331/41/1 332/40/1
f 333/48/1 334/49/1 335/42/1 336/41/1
f 337/36/1 338/37/1 339/30/1 340/29/1
f 341/37/1 342/38/1 343/31/1 344/30/1
f 345/38/1 346/39/1 347/32/1 348/31/1
f 349/39/1 350/40/1 351/33/1 352/32/1
f 353/40/1 354/41/1 355/34/1 356/33/1
f 357/41/1 358/42/1 359/35/1 360/34/1
f 361/36/1 362/37/1 363/30/1 364/29/1
f 365/37/1 366/38/1 367/31/1 368/30/1
f 369/38/1 370/39/1 371/32/1 372/31/1
f 373/39/1 374/40/1 375/33/1 376/32/1
f 377/40/1 378/41/1 379/34/1 380/33/1
f 381/41/1 382/42/1 383/35/1 384/34/1
f 385/50/1 386/51/1 387/44/1 388/43/1
f 389/51/1 390/52/1 391/45/1 392/44/1
f 393/52/1 394/53/1 395/46/1 396/45/1
f 397/53/1 398/54/1 399/47/1 400/46/1
f 401/54/1 402/55/1 403/48/1 404/47/1
f 405/55/1 406/56/1 407/49/1 408/48/1
f 409/43/1 410/44/1 411/37/1 412/36/1
f 413/44/1 414/45/1 415/38/1 416/37/1
f 417/45/1 418/46/1 419/39/1 420/38/1
f 421/46/1 422/47/1 423/40/1 424/39/1
f 425/47/1 426/48/1 427/41/1 428/40/1
f 429/48/1 430/49/1 431/42/1 432/41/1
f 433/43/1 434/44/1 435/37/1 436/36/1
f 437/44/1 438/45/1 439/38/1 440/37/1
f 441/45/1 442/46/1 443/39/1 444/38/1
f 445/46/1 446/47/1 447/40/1 448/39/1
f 449/47/1 450/48/1 451/41/1 452/40/1
f 453/48/1 454/49/1 455/42/1 456/41/1
f 457/57/1 458/58/1 459/51/1 460/50/1
f 461/58/1 462/59/1 463/52/1 464/51/1
f 465/59/1 466/60/1 467/53/1 468/52/1
f 469/60/1 470/61/1 471/54/1 472/53/1
f 473/61/1 474/62/1 475/55/1 476/54/1
f 477/62/1 478/63/1 479/56/1 480/55/1
f 481/50/1 482/51/1 483/44/1 484/43/1
f 485/51/1 486/52/1 487/45/1 488/44/1
f 489/52/1 490/53/1 491/46/1 492/45/1
f 493/53/1 494/54/1 495/47/1 496/46/1
f 497/54/1 498/55/1 499/48/1 500/47/1
f 501/55/1 502/56/1 503/49/1 504/48/1
f 505/64/1 506/65/1 507/58/1 508/57/1
f 509/65/1 510/66/1 511/59/1 512/58/1
f 513/66/1 514/67/1 515/60/1 516/59/1
f 517/67/1 518/68/1 519/61/1 520/60/1
f 521/68/1 522/69/1 523/62/1 524/61/1
f 525/69/1 526/70/1 527/63/1 528/62/1
f 529/57/1 530/58/1 531/51/1 532/50/1
f 533/58/1 534/59/1 535/52/1 536/51/1
f 537/59/1 538/60/1 539/53/1 540/52/1
f 541/60/1 542/61/1 543/54/1 544/53/1
f 545/61/1 546/62/1 547/55/1 548/54/1
f 549/62/1 550/63/1 551/56/1 552/55/1
f 553/64/1 554/65/1 555/58/1 556/57/1
f 557/65/1 558/66/1 559/59/1 560/58/1
f 561/66/1 562/67/1 563/60/1 564/59/1
f 565/67/1 566/68/1 567/61/1 568/60/1
f 569/68/1 570/69/1 571/62/1 572/61/1
f 573/69/1 574/70/1 575/63/1 576/62/1

